<?xml version="1.0" encoding="utf-8"?>
<!-- Generator: Adobe Illustrator 17.1.0, SVG Export Plug-In . SVG Version: 6.00 Build 0)  -->
<!DOCTYPE svg PUBLIC "-//W3C//DTD SVG 1.1//EN" "http://www.w3.org/Graphics/SVG/1.1/DTD/svg11.dtd">
<svg version="1.1" id="Layer_1" xmlns="http://www.w3.org/2000/svg" xmlns:xlink="http://www.w3.org/1999/xlink" x="0px" y="0px"
	 viewBox="0 0 1000 1000" enable-background="new 0 0 1000 1000" xml:space="preserve">
<path d="M755.678,533.322l-476-476c-7.151-7.149-17.904-9.288-27.245-5.419C243.091,55.772,237,64.889,237,75v680
	c0,10.111,6.091,19.228,15.433,23.097c3.093,1.281,6.341,1.904,9.562,1.904c6.506,0,12.9-2.541,17.683-7.323l145.473-145.473
	L579.64,936.181c4.38,8.761,13.209,13.825,22.38,13.825c3.757,0,7.572-0.851,11.161-2.646l68-34
	c12.35-6.175,17.354-21.191,11.18-33.541L540.451,576H738c10.111,0,19.228-6.091,23.097-15.433
	C764.967,551.226,762.828,540.473,755.678,533.322z M466,526c-6.63,0-12.989,2.634-17.678,7.322L287,694.645V135.355L677.645,526
	H466z"/>
</svg>
