<?xml version="1.0" encoding="utf-8"?>
<!-- Generator: Adobe Illustrator 18.1.1, SVG Export Plug-In . SVG Version: 6.00 Build 0)  -->
<svg version="1.1" id="Layer_1" xmlns="http://www.w3.org/2000/svg" xmlns:xlink="http://www.w3.org/1999/xlink" x="0px" y="0px"
	 viewBox="0 0 1000 1000" enable-background="new 0 0 1000 1000" xml:space="preserve">
<path d="M890.5,212c21,21,38,60,38,92v642c0,31-22,53-53,54h-750c-31,0-53-25-54-54V54c0-31,25-53,54-54h500c29,0,71,17,91,38
	L890.5,212z M642.5,76v210h210c-3-11-7-18-12-23l-175-175C661.5,83,653.5,79,642.5,76L642.5,76z M857.5,929V357h-232
	c-31,0-53-22-54-53V71h-429v858H857.5z"/>
<path d="M831.906,610.839l-50.558-50.558c-3.094-3.095-7.291-4.833-11.667-4.833s-8.573,1.738-11.667,4.833l-50.559,50.558
	c-3.095,3.095-4.833,7.292-4.833,11.667s1.738,8.573,4.833,11.667l9.889,9.889c-41.827,27.642-90.829,42.489-142.117,42.489
	c-51.289,0-100.29-14.848-142.118-42.489l9.889-9.889c6.443-6.444,6.443-16.891,0-23.335l-50.558-50.558
	c-6.444-6.443-16.891-6.443-23.335,0l-9.889,9.889c-27.642-41.827-42.49-90.829-42.49-142.117
	c0-51.289,14.848-100.291,42.49-142.118l9.889,9.889c3.222,3.222,7.445,4.833,11.667,4.833s8.445-1.611,11.667-4.833l50.558-50.558
	c6.443-6.444,6.443-16.891,0-23.335l-50.558-50.558c-6.444-6.443-16.891-6.443-23.335,0l-50.558,50.558
	c-6.443,6.444-6.443,16.891,0,23.335l16.906,16.906c-33.615,48.371-51.726,105.731-51.726,165.881
	c0,30.068,4.541,59.434,13.262,87.336l-99.003-99.003c-6.444-6.443-16.891-6.443-23.335,0c-6.443,6.444-6.443,16.891,0,23.335
	l157.508,157.508l-13.612,13.612c-6.443,6.444-6.443,16.891,0,23.335l50.558,50.558c3.222,3.222,7.445,4.833,11.667,4.833
	s8.445-1.611,11.667-4.833l13.612-13.612l157.508,157.508c3.222,3.222,7.444,4.833,11.667,4.833s8.445-1.611,11.667-4.833
	c6.444-6.444,6.444-16.891,0-23.335l-99.004-99.004c27.902,8.722,57.268,13.263,87.337,13.263c60.15,0,117.51-18.111,165.881-51.726
	l16.906,16.906c3.094,3.094,7.291,4.833,11.667,4.833s8.573-1.738,11.667-4.833l50.558-50.558
	C838.351,627.73,838.351,617.283,831.906,610.839z"/>
</svg>
