<?xml version="1.0" encoding="utf-8"?>
<!-- Generator: Adobe Illustrator 17.1.0, SVG Export Plug-In . SVG Version: 6.00 Build 0)  -->
<!DOCTYPE svg PUBLIC "-//W3C//DTD SVG 1.1//EN" "http://www.w3.org/Graphics/SVG/1.1/DTD/svg11.dtd">
<svg version="1.1" id="Layer_1" xmlns="http://www.w3.org/2000/svg" xmlns:xlink="http://www.w3.org/1999/xlink" x="0px" y="0px"
	 viewBox="0 0 1000 1000" enable-background="new 0 0 1000 1000" xml:space="preserve">
<path d="M767.338,577.815l-240-540C522.524,26.982,511.779,20,499.924,20s-22.599,6.982-27.415,17.816l-240,540
	c-3.599,8.098-3.434,17.372,0.451,25.336c3.885,7.964,11.091,13.804,19.688,15.953c0.22,0.055,22.976,6.521,46.063,29.608
	c14.529,14.529,26.173,32.59,34.609,53.679c11.018,27.544,16.604,60.384,16.604,97.608l0,0h-60v60h60v120h300V860h60v-60h-60l0,0
	c0-64.82,16.463-114.935,48.931-148.95c22.925-24.018,46.43-31.368,48.511-31.983c8.678-2.02,15.698-7.723,19.696-15.696
	C771.085,595.346,770.984,586.018,767.338,577.815z M658.711,606.287c-20.308,20.308-36.421,45.145-47.892,73.821
	c-13.865,34.663-20.895,75.001-20.895,119.892l0,0h-180l0,0c0-44.891-7.03-85.229-20.896-119.892
	c-11.471-28.677-27.584-53.514-47.891-73.821c-14.563-14.563-29.183-24.712-41.551-31.661l170.338-383.259V500
	c0,16.568,13.432,30,30,30s30-13.432,30-30V191.366l170.338,383.259C687.893,581.575,673.275,591.723,658.711,606.287z"/>
</svg>
