<?xml version="1.0" encoding="utf-8"?>
<!-- Generator: Adobe Illustrator 17.1.0, SVG Export Plug-In . SVG Version: 6.00 Build 0)  -->
<!DOCTYPE svg PUBLIC "-//W3C//DTD SVG 1.1//EN" "http://www.w3.org/Graphics/SVG/1.1/DTD/svg11.dtd">
<svg version="1.1" id="Layer_1" xmlns="http://www.w3.org/2000/svg" xmlns:xlink="http://www.w3.org/1999/xlink" x="0px" y="0px"
	 viewBox="0 0 1000 1000" enable-background="new 0 0 1000 1000" xml:space="preserve">
<path d="M745.571,955.233c-13.808,0-25-11.192-25-25v-82.5c0-9.435,0-31.529,166.199-530.128l0.084-0.25
	c4.672-14.009,2.741-25.959-5.738-35.524c-10.165-11.466-28.595-17.909-42.864-14.99c-9.81,2.007-12.667,7.409-13.963,11.297
	L769.288,443.14c-3.877,11.632-15.606,18.735-27.722,16.771c-12.103-1.964-20.995-12.416-20.995-24.677V160.261
	c0-3.775-1.228-36.878-43.759-36.878c-42.514,0-43.741,33.079-43.741,36.851c0,56.158-26.618,243.131-27.751,251.063
	c-1.76,12.316-12.308,21.464-24.749,21.464s-22.989-9.148-24.749-21.464c-1.133-7.931-27.751-195.195-27.751-278.536
	c0-36.703-35.321-38.562-42.402-38.562c-12.306,0-24.106,3.839-32.377,10.534c-8.441,6.832-12.721,16.253-12.721,28.001v275
	c0,11.984-8.504,22.282-20.271,24.549c-11.767,2.269-23.488-4.136-27.94-15.262c-2.257-5.642-55.589-139.103-83.006-221.383
	c-8.535-25.598-25.312-34.037-37.882-36.608c-17.106-3.5-36.33,2.262-46.746,14.009c-8.135,9.175-9.964,20.711-5.438,34.287
	c27.04,81.12,108.869,299.434,109.692,301.629c4.367,11.646-0.49,24.729-11.397,30.704c-10.908,5.976-24.548,3.024-32.011-6.926
	c-0.193-0.257-20.183-26.767-46.187-52.706c-43.992-43.883-65.706-47.294-71.313-47.294c-25.696,0-43.823,18.231-53.096,30.472
	c21.516,36.111,80.123,135.179,102.957,180.847c18.954,37.913,83.393,109.079,132.817,158.503
	c15.53,15.53,25.714,41.521,31.133,79.455c3.647,25.527,3.689,47.308,3.689,48.223c0,13.808-11.193,25-25,25
	c-13.801,0-24.99-11.184-25-24.982l0,0c-0.042-29.144-6.484-78.646-20.178-92.34c-18.849-18.85-114.29-115.703-142.184-171.499
	C146.45,612.892,64.954,476.963,64.134,475.596c-4.397-7.33-4.746-16.397-0.923-24.042c1.405-2.81,35.211-68.82,104.861-68.82
	c21.376,0,45.231,10.28,72.286,31.263c-24.832-67.329-54.187-147.91-68.503-190.857c-10.138-30.404-4.504-60.756,15.458-83.271
	c22.38-25.243,59.347-36.948,94.179-29.825c35.486,7.259,62.931,32.694,75.297,69.783c9.151,27.462,21.473,61.312,33.783,94.106
	V132.734c0-26.801,11.103-50.547,31.264-66.865c17.264-13.974,39.934-21.669,63.834-21.669c23.66,0,45.834,7.634,62.442,21.497
	c19.32,16.127,29.96,39.945,29.96,67.065c0,16.852,1.203,38.602,3.104,62.457c1.188-14.334,1.896-26.456,1.896-34.984
	c0-26.584,10.962-49.992,30.866-65.911c16.883-13.503,39.212-20.94,62.875-20.94c23.668,0,46.001,7.439,62.888,20.947
	c19.907,15.924,30.871,39.339,30.871,65.932v120.916l6.283-18.849c7.72-23.162,26.445-39.372,51.375-44.472
	c31.896-6.522,68.181,5.855,90.3,30.806c20.293,22.889,26.036,53.692,15.758,84.509l-0.082,0.246
	C787.873,772.413,771.838,838.69,770.571,848.472v81.762C770.571,944.041,759.378,955.233,745.571,955.233z"/>
</svg>
