<?xml version="1.0" encoding="utf-8"?>
<!-- Generator: Adobe Illustrator 17.1.0, SVG Export Plug-In . SVG Version: 6.00 Build 0)  -->
<!DOCTYPE svg PUBLIC "-//W3C//DTD SVG 1.1//EN" "http://www.w3.org/Graphics/SVG/1.1/DTD/svg11.dtd">
<svg version="1.1" id="Layer_1" xmlns="http://www.w3.org/2000/svg" xmlns:xlink="http://www.w3.org/1999/xlink" x="0px" y="0px"
	 viewBox="0 0 1000 1000" enable-background="new 0 0 1000 1000" xml:space="preserve">
<path d="M984.855,889.389L673.664,578.197c12.88-19.02,23.889-39.272,32.924-60.629c18.521-43.782,27.912-90.272,27.912-138.18
	c0-47.907-9.391-94.397-27.912-138.179c-17.884-42.274-43.479-80.237-76.075-112.833c-32.597-32.596-70.56-58.192-112.834-76.075
	C473.897,33.78,427.407,24.389,379.5,24.389c-47.907,0-94.397,9.391-138.18,27.913c-42.274,17.883-80.237,43.479-112.833,76.075
	s-58.191,70.559-76.075,112.833C33.891,284.992,24.5,331.482,24.5,379.389c0,47.907,9.391,94.397,27.912,138.18
	c17.884,42.274,43.479,80.236,76.075,112.833s70.559,58.191,112.833,76.075c43.782,18.521,90.272,27.912,138.18,27.912
	c47.907,0,94.397-9.391,138.179-27.912c21.357-9.035,41.609-20.044,60.63-32.924L889.5,984.744L984.855,889.389z M379.5,684.389
	c-81.455,0-158.044-31.729-215.657-89.343C106.229,537.433,74.5,460.844,74.5,379.389c0-81.455,31.729-158.043,89.343-215.657
	c57.614-57.614,134.202-89.343,215.657-89.343c81.455,0,158.043,31.729,215.657,89.343c57.613,57.614,89.343,134.202,89.343,215.657
	c0,81.455-31.729,158.044-89.343,215.657C537.543,652.659,460.955,684.389,379.5,684.389z"/>
</svg>
